/* XPM */
static char * button2_xpm[] = {
"13 13 15 1",
" 	c None",
".	c #FFFFFF",
"+	c #6B6A6B",
"@	c #B4B2B4",
"#	c #D5D2D5",
"$	c #000000",
"%	c #EEEEEE",
"&	c #B4B1B4",
"*	c #BBB9BB",
"=	c #C2C0C2",
"-	c #C9C8C9",
";	c #D0CFD0",
">	c #D8D7D8",
",	c #DFDFDF",
"'	c #E6E6E6",
"............+",
"@@@@@@@@@@##+",
"@$$$$$$$$$%#+",
"@$%######$%#+",
"@$#&*=-;@$%#+",
"@$#*$-$>@$%#+",
"@$#=-$>,@$%#+",
"@$#-$>$'@$%#+",
"@$#;>,'%@$%#+",
"@$#@@@@@@$%#+",
"@$$$$$$$$$%#+",
"#%%%%%%%%%%#+",
"+++++++++++++"};
