/* XPM */
static char * title_xpm[] = {
"10 13 4 1",
" 	c None",
".	c #FFFFFF",
"+	c #D5D2D5",
"@	c #6B6A6B",
"..........",
"++++++++++",
"++++++++++",
"++++++++++",
"++++++++++",
"++++++++++",
"++++++++++",
"++++++++++",
"++++++++++",
"++++++++++",
"++++++++++",
"++++++++++",
"@@@@@@@@@@"};
