/* XPM */
static char * close_activeup_xpm[] = {
"14 14 15 1",
" 	c None",
".	c #D4D4D4",
"+	c #D0D0D0",
"@	c #CCCCCC",
"#	c #C8C8C8",
"$	c #C5C5C5",
"%	c #000000",
"&	c #C1C1C1",
"*	c #BDBDBD",
"=	c #BABABA",
"-	c #B6B6B6",
";	c #B2B2B2",
">	c #AFAFAF",
",	c #ABABAB",
"'	c #A7A7A7",
"..............",
"++++++++++++++",
"@@@@@@@@@@@@@@",
"##############",
"$$$$$%$$$%$$$$",
"&&&&&&%&%&&&&&",
"*******%******",
"======%=%=====",
"-----%---%----",
";;;;;;;;;;;;;;",
">>>>>>>>>>>>>>",
",,,,,,,,,,,,,,",
"''''''''''''''",
"%%%%%%%%%%%%%%"};
