/* XPM */
static char * title_inactive_xpm[] = {
"1 14 5 1",
" 	c None",
".	c #D4D4D4",
"+	c #636363",
"@	c #A7A7A7",
"#	c #000000",
".",
"+",
"+",
"+",
"+",
"+",
"+",
"+",
"+",
"+",
"+",
"+",
"@",
"#"};
