/* XPM */
static char * title_active_xpm[] = {
"1 14 4 1",
" 	c None",
".	c #D4D4D4",
"+	c #000000",
"@	c #A7A7A7",
".",
"+",
"+",
"+",
"+",
"+",
"+",
"+",
"+",
"+",
"+",
"+",
"@",
"+"};
